<svg xmlns="http://www.w3.org/2000/svg" width="512" height="512" viewBox="0 0 512 512">
  <defs>
    <linearGradient id="bg" x1="0" y1="0" x2="1" y2="1">
      <stop offset="0" stop-color="#0d2b35"/>
      <stop offset="0.55" stop-color="#15505c"/>
      <stop offset="1" stop-color="#1f7a85"/>
    </linearGradient>
    <linearGradient id="tile" x1="0" y1="0" x2="0.4" y2="1">
      <stop offset="0" stop-color="#fffdf5"/>
      <stop offset="1" stop-color="#f3e9d2"/>
    </linearGradient>
    <linearGradient id="tuPet" x1="0" y1="0" x2="0" y2="1">
      <stop offset="0" stop-color="#ff6f60"/><stop offset="0.55" stop-color="#e53935"/><stop offset="1" stop-color="#b71c1c"/>
    </linearGradient>
    <linearGradient id="tuStem" x1="0" y1="0" x2="0" y2="1">
      <stop offset="0" stop-color="#66bb6a"/><stop offset="1" stop-color="#2e7d32"/>
    </linearGradient>
    <linearGradient id="whBody" x1="0" y1="0" x2="0" y2="1">
      <stop offset="0" stop-color="#5eb3f0"/><stop offset="0.5" stop-color="#1e88e5"/><stop offset="1" stop-color="#0d47a1"/>
    </linearGradient>
    <linearGradient id="whBelly" x1="0" y1="0" x2="0" y2="1">
      <stop offset="0" stop-color="#e3f2fd"/><stop offset="1" stop-color="#90caf9"/>
    </linearGradient>
  </defs>
  <rect width="512" height="512" rx="104" fill="url(#bg)"/>

  <!-- Ficha 1: tulipán -->
  <rect x="112" y="92" width="178" height="228" rx="30" fill="url(#tile)" stroke="#b99a5e" stroke-width="6"/>
  <g transform="translate(141,141) scale(1.18)">
    <path d="M50 93 V54" stroke="url(#tuStem)" stroke-width="7" stroke-linecap="round" fill="none"/>
    <path d="M50 76 C29 74 22 84 30 92 C45 90 50 84 50 76 Z" fill="url(#tuStem)" stroke="#2e7d32" stroke-width="2.5"/>
    <path d="M50 68 C71 66 80 76 72 86 C56 84 50 78 50 68 Z" fill="url(#tuStem)" stroke="#2e7d32" stroke-width="2.5"/>
    <path d="M50 60 C31 58 25 43 29 32 C33 43 44 37 44 26 C47 37 53 37 56 26 C56 37 67 43 71 32 C75 43 69 58 50 60 Z" fill="url(#tuPet)" stroke="#8e0000" stroke-width="3" stroke-linejoin="round"/>
  </g>

  <!-- Ficha 2: ballena -->
  <rect x="222" y="184" width="178" height="228" rx="30" fill="url(#tile)" stroke="#b99a5e" stroke-width="6"/>
  <g transform="translate(246,238) scale(1.30)">
    <path d="M22 58 Q27 35 58 35 Q87 35 91 54 Q91 67 70 69 Q40 73 22 58 Z" fill="url(#whBody)" stroke="#0a3578" stroke-width="3"/>
    <path d="M22 58 Q8 45 2 49 Q12 58 6 68 Q17 65 22 58 Z" fill="url(#whBody)" stroke="#0a3578" stroke-width="3" stroke-linejoin="round"/>
    <path d="M28 61 Q52 71 76 63 Q56 67 28 61 Z" fill="url(#whBelly)" stroke="#0a3578" stroke-width="1.5"/>
    <g stroke="#4fc3f7" stroke-width="4" stroke-linecap="round"><path d="M78 31 V17"/><path d="M70 33 L63 21"/><path d="M86 33 L93 21"/></g>
    <circle cx="80" cy="50" r="3.6" fill="#fff" stroke="#222" stroke-width="1.5"/>
    <circle cx="80" cy="50" r="1.8" fill="#111"/>
  </g>
</svg>
